<?xml version="1.0" standalone="no"?>
<!DOCTYPE svg PUBLIC "-//W3C//DTD SVG 20010904//EN"
 "http://www.w3.org/TR/2001/REC-SVG-20010904/DTD/svg10.dtd">
<svg version="1.0" xmlns="http://www.w3.org/2000/svg"
 width="500.000000pt" height="500.000000pt" viewBox="0 0 500.000000 500.000000"
 preserveAspectRatio="xMidYMid meet">
<metadata>
Created by potrace 1.14, written by Peter Selinger 2001-2017
</metadata>
<g transform="translate(0.000000,500.000000) scale(0.100000,-0.100000)"
fill="#000000" stroke="none">
<path d="M2365 3915 c-5 -1 -57 -11 -115 -20 -143 -24 -262 -63 -375 -122 -83
-44 -122 -66 -137 -80 -9 -8 -22 -12 -29 -7 -7 4 -10 3 -7 -2 4 -5 -10 -20
-29 -34 -138 -99 -269 -234 -339 -352 -6 -10 -17 -26 -26 -35 -20 -25 -88
-142 -88 -154 0 -5 -11 -30 -24 -57 -43 -85 -86 -246 -107 -397 -28 -212 19
-527 107 -710 13 -28 24 -53 24 -57 0 -11 119 -207 138 -228 9 -10 31 -37 47
-60 55 -77 210 -217 304 -275 9 -5 30 -19 46 -31 17 -11 44 -28 60 -36 17 -8
44 -22 60 -31 60 -31 142 -67 156 -67 8 0 38 -9 66 -20 29 -11 115 -29 190
-41 149 -23 315 -23 441 1 60 12 63 14 58 36 -4 14 -18 41 -33 62 l-27 37
-200 0 c-177 0 -212 3 -296 23 -52 13 -117 33 -145 44 -27 10 -58 21 -68 23
-46 10 -231 119 -312 184 -47 38 -214 211 -227 236 -7 12 -29 47 -48 76 -72
108 -124 230 -166 389 -27 97 -29 119 -29 290 0 177 2 190 32 300 45 162 95
279 172 394 14 21 31 46 36 54 40 62 174 197 255 258 151 114 288 180 480 231
97 25 120 27 290 27 170 0 193 -2 290 -27 141 -37 321 -114 379 -160 7 -6 21
-16 31 -22 66 -39 112 -77 193 -160 98 -101 137 -143 137 -150 0 -2 13 -23 29
-47 38 -56 111 -193 111 -208 0 -6 9 -29 19 -50 11 -22 25 -64 31 -92 7 -29
16 -64 21 -78 32 -95 39 -338 14 -462 -31 -154 -44 -207 -60 -238 -9 -18 -19
-42 -21 -54 -3 -19 -28 -69 -88 -177 -10 -19 -29 -47 -42 -64 -13 -16 -32 -41
-41 -55 -33 -45 -208 -217 -252 -246 -100 -67 -129 -84 -181 -110 -104 -52
-87 -62 -208 118 -140 209 -199 297 -220 330 -16 27 -21 28 -95 28 -77 0 -78
0 -71 -22 3 -13 12 -30 19 -38 19 -22 85 -121 85 -128 0 -3 7 -13 16 -23 9
-10 35 -47 58 -82 22 -36 68 -104 101 -152 33 -48 65 -94 70 -103 44 -70 86
-132 95 -137 30 -19 309 114 415 197 113 88 256 228 293 287 9 14 19 28 23 31
26 21 179 303 179 330 0 6 11 42 24 80 41 117 69 324 63 464 -5 136 -30 286
-58 360 -11 27 -19 55 -19 64 0 15 -35 96 -67 157 -44 83 -66 121 -76 134 -6
7 -16 21 -22 31 -42 72 -83 120 -186 223 -66 64 -126 117 -134 117 -8 0 -15 4
-15 9 0 10 -208 135 -275 165 -150 68 -390 116 -574 115 -64 0 -120 -2 -126
-4z"/>
<path d="M2028 3044 c-2 -1 -15 -5 -28 -8 -14 -2 -41 -8 -60 -12 -45 -9 -142
-59 -165 -84 -10 -11 -22 -20 -26 -20 -10 0 -69 -59 -69 -70 0 -4 -7 -13 -16
-20 -8 -8 -29 -41 -45 -74 -69 -138 -72 -324 -7 -462 16 -34 36 -68 44 -75 8
-6 14 -17 14 -23 0 -6 21 -29 47 -51 25 -22 53 -48 62 -57 8 -10 23 -18 33
-18 10 0 18 -4 18 -8 0 -26 157 -69 257 -71 96 -2 109 5 91 45 -7 16 -21 35
-30 42 -10 7 -18 20 -18 28 0 9 -11 14 -32 15 -78 2 -106 7 -158 29 -114 49
-191 136 -230 258 -26 83 -24 158 8 247 55 156 221 268 386 261 75 -4 174 -38
213 -73 13 -13 27 -23 31 -23 15 0 79 -86 106 -142 23 -48 28 -69 28 -145 1
-97 -7 -146 -29 -180 -13 -20 -12 -27 18 -78 19 -30 39 -55 44 -55 16 0 57 75
81 151 87 272 -92 590 -370 656 -55 13 -191 25 -198 17z"/>
<path d="M2540 3041 c0 -3 20 -24 45 -46 25 -22 45 -45 45 -52 0 -8 6 -16 14
-19 8 -3 135 -6 283 -7 l269 -2 37 -25 c101 -68 100 -218 -1 -282 -35 -22 -50
-23 -242 -28 l-205 -5 0 -292 0 -293 205 0 c223 0 257 6 333 61 48 34 106 123
109 164 5 108 -2 167 -26 208 -14 23 -36 53 -49 67 l-24 25 33 39 c54 63 67
100 67 195 0 102 -20 152 -90 218 -77 74 -101 78 -475 79 -181 1 -328 -1 -328
-5z m691 -614 c104 -61 106 -213 4 -279 -41 -27 -47 -28 -179 -28 l-136 0 0
163 c0 90 2 166 5 169 3 2 63 4 133 3 119 -2 132 -4 173 -28z"/>
<path d="M2255 2326 c-83 -47 -92 -67 -50 -106 14 -13 25 -27 25 -31 0 -4 19
-35 43 -69 23 -34 47 -69 52 -78 44 -75 48 -77 126 -75 41 1 76 2 78 2 2 1 -8
16 -23 35 -14 19 -26 39 -26 44 0 4 -11 19 -25 32 -14 13 -25 29 -25 35 0 7
-11 24 -25 39 -14 15 -25 31 -25 36 0 5 -6 15 -13 22 -7 7 -26 34 -41 60 -35
60 -46 69 -71 54z"/>
</g>
</svg>
